# Blender 3.3.1
# www.blender.org
mtllib coil.mtl
o 円柱
v -0.999998 2.273634 -1.041329
v 0.999998 2.277924 -1.041329
v -0.999562 2.070482 -1.021320
v 1.000433 2.074771 -1.021320
v -0.999143 1.875136 -0.962063
v 1.000852 1.879425 -0.962063
v -0.998757 1.695104 -0.865834
v 1.001238 1.699393 -0.865834
v -0.998419 1.537305 -0.736331
v 1.001577 1.541594 -0.736331
v -0.998141 1.407803 -0.578532
v 1.001855 1.412092 -0.578532
v -0.997935 1.311574 -0.398500
v 1.002061 1.315863 -0.398500
v -0.997807 1.252316 -0.203153
v 1.002188 1.256606 -0.203153
v -0.997765 1.232308 0.000000
v 1.002231 1.236597 0.000000
v -0.997807 1.252316 0.203153
v 1.002188 1.256606 0.203153
v -0.997935 1.311574 0.398500
v 1.002061 1.315863 0.398500
v -0.998141 1.407803 0.578532
v 1.001855 1.412092 0.578532
v -0.998419 1.537305 0.736331
v 1.001577 1.541594 0.736331
v -0.998757 1.695104 0.865834
v 1.001238 1.699393 0.865834
v -0.999143 1.875136 0.962063
v 1.000852 1.879425 0.962063
v -0.999562 2.070482 1.021320
v 1.000433 2.074771 1.021320
v -0.999998 2.273634 1.041329
v 0.999998 2.277924 1.041329
v -1.000433 2.476787 1.021320
v 0.999562 2.481076 1.021320
v -1.000852 2.672133 0.962063
v 0.999143 2.676422 0.962063
v -1.001238 2.852165 0.865834
v 0.998757 2.856454 0.865834
v -1.001577 3.009964 0.736331
v 0.998419 3.014253 0.736331
v -1.001855 3.139466 0.578532
v 0.998141 3.143755 0.578532
v -1.002061 3.235695 0.398500
v 0.997935 3.239984 0.398500
v -1.002188 3.294952 0.203153
v 0.997807 3.299242 0.203153
v -1.002231 3.314961 0.000000
v 0.997765 3.319251 0.000000
v -1.002188 3.294952 -0.203153
v 0.997807 3.299242 -0.203153
v -1.002061 3.235695 -0.398500
v 0.997935 3.239984 -0.398500
v -1.001855 3.139466 -0.578532
v 0.998141 3.143755 -0.578532
v -1.001577 3.009964 -0.736331
v 0.998419 3.014253 -0.736331
v -1.001238 2.852165 -0.865834
v 0.998757 2.856454 -0.865834
v -1.000852 2.672133 -0.962063
v 0.999143 2.676422 -0.962063
v -1.000433 2.476787 -1.021320
v 0.999562 2.481076 -1.021320
v 1.000992 1.814215 -2.331228
v 0.999998 2.277924 -2.376899
v 1.001948 1.368326 -2.195968
v 1.002830 0.957392 -1.976319
v 1.003602 0.597206 -1.680721
v 1.004236 0.301609 -1.320534
v 1.004707 0.081960 -0.909600
v 1.004997 -0.053298 -0.463710
v 1.005095 -0.098970 0.000000
v 1.004997 -0.053298 0.463710
v 1.004707 0.081960 0.909600
v 1.004236 0.301609 1.320534
v 1.003602 0.597206 1.680721
v 1.002830 0.957392 1.976319
v 1.001948 1.368326 2.195968
v 1.000992 1.814215 2.331228
v 0.999998 2.277924 2.376899
v 0.999003 2.741632 2.331228
v 0.998047 3.187521 2.195968
v 0.997166 3.598455 1.976319
v 0.996393 3.958641 1.680721
v 0.995759 4.254238 1.320534
v 0.995288 4.473886 0.909600
v 0.994998 4.609146 0.463710
v 0.994900 4.654817 0.000000
v 0.994998 4.609146 -0.463710
v 0.995288 4.473886 -0.909600
v 0.995759 4.254238 -1.320534
v 0.996393 3.958641 -1.680721
v 0.997166 3.598455 -1.976319
v 0.998047 3.187521 -2.195968
v 0.999003 2.741632 -2.331228
v -0.999998 2.273634 -2.376899
v -0.999003 1.809926 -2.331228
v -0.998047 1.364037 -2.195968
v -0.997166 0.953103 -1.976319
v -0.996393 0.592917 -1.680721
v -0.995759 0.297320 -1.320534
v -0.995288 0.077671 -0.909600
v -0.994998 -0.057588 -0.463710
v -0.994900 -0.103259 0.000000
v -0.994998 -0.057588 0.463710
v -0.995288 0.077671 0.909600
v -0.995759 0.297320 1.320534
v -0.996393 0.592917 1.680721
v -0.997166 0.953103 1.976319
v -0.998047 1.364037 2.195968
v -0.999003 1.809926 2.331228
v -0.999998 2.273634 2.376899
v -1.000992 2.737343 2.331228
v -1.001948 3.183232 2.195968
v -1.002830 3.594166 1.976319
v -1.003602 3.954352 1.680721
v -1.004236 4.249949 1.320534
v -1.004707 4.469598 0.909600
v -1.004997 4.604856 0.463710
v -1.005095 4.650528 0.000000
v -1.004997 4.604856 -0.463710
v -1.004707 4.469598 -0.909600
v -1.004236 4.249949 -1.320534
v -1.003602 3.954352 -1.680721
v -1.002830 3.594166 -1.976319
v -1.001948 3.183232 -2.195968
v -1.000992 2.737343 -2.331228
v 1.000992 1.814215 -2.331228
v 0.999998 2.277924 -2.376899
v 1.001948 1.368326 -2.195968
v 1.002830 0.957392 -1.976319
v 1.003602 0.597206 -1.680721
v 1.004236 0.301609 -1.320534
v 1.004707 0.081960 -0.909600
v 1.004997 -0.053298 -0.463710
v 1.005095 -0.098970 0.000000
v 1.004997 -0.053298 0.463710
v 1.004707 0.081960 0.909600
v 1.004236 0.301609 1.320534
v 1.003602 0.597206 1.680721
v 1.002830 0.957392 1.976319
v 1.001948 1.368326 2.195968
v 1.000992 1.814215 2.331228
v 0.999998 2.277924 2.376899
v 0.999003 2.741632 2.331228
v 0.998047 3.187521 2.195968
v 0.997166 3.598455 1.976319
v 0.996393 3.958641 1.680721
v 0.995759 4.254238 1.320534
v 0.995288 4.473886 0.909600
v 0.994998 4.609146 0.463710
v 0.994900 4.654817 0.000000
v 0.994998 4.609146 -0.463710
v 0.995288 4.473886 -0.909600
v 0.995759 4.254238 -1.320534
v 0.996393 3.958641 -1.680721
v 0.997166 3.598455 -1.976319
v 0.998047 3.187521 -2.195968
v 0.999003 2.741632 -2.331228
vn 0.0002 -0.0980 -0.9952
vn 0.0006 -0.2903 -0.9569
vn 0.0010 -0.4714 -0.8819
vn 0.0014 -0.6344 -0.7730
vn 0.0017 -0.7730 -0.6344
vn 0.0019 -0.8819 -0.4714
vn 0.0021 -0.9569 -0.2903
vn 0.0021 -0.9952 -0.0980
vn 0.0021 -0.9952 0.0980
vn 0.0021 -0.9569 0.2903
vn 0.0019 -0.8819 0.4714
vn 0.0017 -0.7730 0.6344
vn 0.0014 -0.6344 0.7730
vn 0.0010 -0.4714 0.8819
vn 0.0006 -0.2903 0.9569
vn 0.0002 -0.0980 0.9952
vn -0.0002 0.0980 0.9952
vn -0.0006 0.2903 0.9569
vn -0.0010 0.4714 0.8819
vn -0.0014 0.6344 0.7730
vn -0.0017 0.7730 0.6344
vn -0.0019 0.8819 0.4714
vn -0.0021 0.9569 0.2903
vn -0.0021 0.9952 0.0980
vn -0.0021 0.9952 -0.0980
vn -0.0021 0.9569 -0.2903
vn -0.0019 0.8819 -0.4714
vn -0.0017 0.7730 -0.6344
vn -0.0014 0.6344 -0.7730
vn -0.0010 0.4714 -0.8819
vn -0.0006 0.2903 -0.9569
vn -0.0002 0.0980 -0.9952
vn 1.0000 0.0021 -0.0000
vn -1.0000 -0.0021 -0.0000
vt 0.750000 0.355145
vt 0.250000 0.355145
vt 0.770513 0.353125
vt 0.270513 0.353125
vt 0.790237 0.347141
vt 0.290237 0.347141
vt 0.808416 0.337425
vt 0.308415 0.337425
vt 0.824349 0.324349
vt 0.324349 0.324349
vt 0.837425 0.308415
vt 0.337425 0.308415
vt 0.847141 0.290237
vt 0.347141 0.290237
vt 0.853125 0.270513
vt 0.353125 0.270513
vt 0.855145 0.250000
vt 0.355145 0.250000
vt 0.853125 0.229487
vt 0.353125 0.229487
vt 0.847141 0.209763
vt 0.347141 0.209763
vt 0.837425 0.191585
vt 0.337425 0.191585
vt 0.824349 0.175651
vt 0.324349 0.175651
vt 0.808415 0.162575
vt 0.308415 0.162575
vt 0.790237 0.152859
vt 0.290237 0.152859
vt 0.770513 0.146875
vt 0.270513 0.146875
vt 0.750000 0.144855
vt 0.250000 0.144855
vt 0.729487 0.146875
vt 0.229487 0.146875
vt 0.709763 0.152859
vt 0.209763 0.152859
vt 0.691585 0.162575
vt 0.191585 0.162575
vt 0.675651 0.175651
vt 0.175651 0.175651
vt 0.662575 0.191585
vt 0.162575 0.191585
vt 0.652859 0.209763
vt 0.152859 0.209763
vt 0.646875 0.229487
vt 0.146875 0.229487
vt 0.644855 0.250000
vt 0.144855 0.250000
vt 0.646875 0.270513
vt 0.146875 0.270513
vt 0.652859 0.290237
vt 0.152859 0.290237
vt 0.662575 0.308415
vt 0.162575 0.308415
vt 0.675651 0.324349
vt 0.175651 0.324349
vt 0.691585 0.337425
vt 0.191585 0.337425
vt 0.709763 0.347141
vt 0.209763 0.347141
vt 0.729487 0.353125
vt 0.229487 0.353125
vt 0.968750 1.000000
vt 0.296822 0.485388
vt 1.000000 1.000000
vt 0.000000 1.000000
vt 0.250000 0.490000
vt 0.937500 1.000000
vt 0.341844 0.471731
vt 0.906250 1.000000
vt 0.383337 0.449553
vt 0.875000 1.000000
vt 0.419706 0.419706
vt 0.843750 1.000000
vt 0.449553 0.383337
vt 0.812500 1.000000
vt 0.471731 0.341844
vt 0.781250 1.000000
vt 0.485388 0.296822
vt 0.750000 1.000000
vt 0.490000 0.250000
vt 0.718750 1.000000
vt 0.485388 0.203178
vt 0.687500 1.000000
vt 0.471731 0.158156
vt 0.656250 1.000000
vt 0.449553 0.116663
vt 0.625000 1.000000
vt 0.419706 0.080294
vt 0.593750 1.000000
vt 0.383337 0.050447
vt 0.562500 1.000000
vt 0.341844 0.028269
vt 0.531250 1.000000
vt 0.296822 0.014612
vt 0.500000 1.000000
vt 0.250000 0.010000
vt 0.468750 1.000000
vt 0.203178 0.014612
vt 0.437500 1.000000
vt 0.158156 0.028269
vt 0.406250 1.000000
vt 0.116663 0.050447
vt 0.375000 1.000000
vt 0.080294 0.080294
vt 0.343750 1.000000
vt 0.050447 0.116663
vt 0.312500 1.000000
vt 0.028269 0.158156
vt 0.281250 1.000000
vt 0.014612 0.203178
vt 0.250000 1.000000
vt 0.010000 0.250000
vt 0.218750 1.000000
vt 0.014612 0.296822
vt 0.187500 1.000000
vt 0.028269 0.341844
vt 0.156250 1.000000
vt 0.050447 0.383337
vt 0.125000 1.000000
vt 0.080294 0.419706
vt 0.093750 1.000000
vt 0.116663 0.449553
vt 0.062500 1.000000
vt 0.158156 0.471731
vt 0.031250 1.000000
vt 0.203178 0.485388
vt 1.000000 0.500000
vt 0.000000 0.500000
vt 0.750000 0.490000
vt 0.968750 0.500000
vt 0.796822 0.485388
vt 0.937500 0.500000
vt 0.841844 0.471731
vt 0.906250 0.500000
vt 0.883337 0.449553
vt 0.875000 0.500000
vt 0.919706 0.419706
vt 0.843750 0.500000
vt 0.949553 0.383337
vt 0.812500 0.500000
vt 0.971731 0.341844
vt 0.781250 0.500000
vt 0.985388 0.296822
vt 0.750000 0.500000
vt 0.990000 0.250000
vt 0.718750 0.500000
vt 0.985388 0.203178
vt 0.687500 0.500000
vt 0.971731 0.158156
vt 0.656250 0.500000
vt 0.949553 0.116663
vt 0.625000 0.500000
vt 0.919706 0.080294
vt 0.593750 0.500000
vt 0.883337 0.050447
vt 0.562500 0.500000
vt 0.841844 0.028269
vt 0.531250 0.500000
vt 0.796822 0.014612
vt 0.500000 0.500000
vt 0.750000 0.010000
vt 0.468750 0.500000
vt 0.703178 0.014612
vt 0.437500 0.500000
vt 0.658156 0.028269
vt 0.406250 0.500000
vt 0.616663 0.050447
vt 0.375000 0.500000
vt 0.580294 0.080294
vt 0.343750 0.500000
vt 0.550447 0.116663
vt 0.312500 0.500000
vt 0.528269 0.158156
vt 0.281250 0.500000
vt 0.514612 0.203178
vt 0.250000 0.500000
vt 0.510000 0.250000
vt 0.218750 0.500000
vt 0.514612 0.296822
vt 0.187500 0.500000
vt 0.528269 0.341844
vt 0.156250 0.500000
vt 0.550447 0.383337
vt 0.125000 0.500000
vt 0.580294 0.419706
vt 0.093750 0.500000
vt 0.616663 0.449553
vt 0.062500 0.500000
vt 0.658156 0.471731
vt 0.031250 0.500000
vt 0.703178 0.485388
vt 0.296822 0.485388
vt 0.250000 0.490000
vt 0.341844 0.471731
vt 0.383337 0.449553
vt 0.419706 0.419706
vt 0.449553 0.383337
vt 0.471731 0.341844
vt 0.485388 0.296822
vt 0.490000 0.250000
vt 0.485388 0.203178
vt 0.471731 0.158156
vt 0.449553 0.116663
vt 0.419706 0.080294
vt 0.383337 0.050447
vt 0.341844 0.028269
vt 0.296822 0.014612
vt 0.250000 0.010000
vt 0.203178 0.014612
vt 0.158156 0.028269
vt 0.116663 0.050447
vt 0.080294 0.080294
vt 0.050447 0.116663
vt 0.028269 0.158156
vt 0.014612 0.203178
vt 0.010000 0.250000
vt 0.014612 0.296822
vt 0.028269 0.341844
vt 0.050447 0.383337
vt 0.080294 0.419706
vt 0.116663 0.449553
vt 0.158156 0.471731
vt 0.203178 0.485388
s 0
f 97/130/1 66/67/1 65/65/1 98/133/1
f 98/133/2 65/65/2 67/70/2 99/135/2
f 99/135/3 67/70/3 68/72/3 100/137/3
f 100/137/4 68/72/4 69/74/4 101/139/4
f 101/139/5 69/74/5 70/76/5 102/141/5
f 102/141/6 70/76/6 71/78/6 103/143/6
f 103/143/7 71/78/7 72/80/7 104/145/7
f 104/145/8 72/80/8 73/82/8 105/147/8
f 105/147/9 73/82/9 74/84/9 106/149/9
f 106/149/10 74/84/10 75/86/10 107/151/10
f 107/151/11 75/86/11 76/88/11 108/153/11
f 108/153/12 76/88/12 77/90/12 109/155/12
f 109/155/13 77/90/13 78/92/13 110/157/13
f 110/157/14 78/92/14 79/94/14 111/159/14
f 111/159/15 79/94/15 80/96/15 112/161/15
f 112/161/16 80/96/16 81/98/16 113/163/16
f 113/163/17 81/98/17 82/100/17 114/165/17
f 114/165/18 82/100/18 83/102/18 115/167/18
f 115/167/19 83/102/19 84/104/19 116/169/19
f 116/169/20 84/104/20 85/106/20 117/171/20
f 117/171/21 85/106/21 86/108/21 118/173/21
f 118/173/22 86/108/22 87/110/22 119/175/22
f 119/175/23 87/110/23 88/112/23 120/177/23
f 120/177/24 88/112/24 89/114/24 121/179/24
f 121/179/25 89/114/25 90/116/25 122/181/25
f 122/181/26 90/116/26 91/118/26 123/183/26
f 123/183/27 91/118/27 92/120/27 124/185/27
f 124/185/28 92/120/28 93/122/28 125/187/28
f 125/187/29 93/122/29 94/124/29 126/189/29
f 126/189/30 94/124/30 95/126/30 127/191/30
f 64/64/15 62/62/15 61/61/15 63/63/15
f 127/191/31 95/126/31 96/128/31 128/193/31
f 128/193/32 96/128/32 66/68/32 97/131/32
f 2/2/16 64/64/16 63/63/16 1/1/16
f 130/196/33 129/195/33 65/66/33 66/69/33
f 129/195/33 131/197/33 67/71/33 65/66/33
f 131/197/33 132/198/33 68/73/33 67/71/33
f 132/198/33 133/199/33 69/75/33 68/73/33
f 133/199/33 134/200/33 70/77/33 69/75/33
f 134/200/33 135/201/33 71/79/33 70/77/33
f 135/201/33 136/202/33 72/81/33 71/79/33
f 136/202/33 137/203/33 73/83/33 72/81/33
f 137/203/33 138/204/33 74/85/33 73/83/33
f 138/204/33 139/205/33 75/87/33 74/85/33
f 139/205/33 140/206/33 76/89/33 75/87/33
f 140/206/33 141/207/33 77/91/33 76/89/33
f 141/207/33 142/208/33 78/93/33 77/91/33
f 142/208/33 143/209/33 79/95/33 78/93/33
f 143/209/33 144/210/33 80/97/33 79/95/33
f 144/210/33 145/211/33 81/99/33 80/97/33
f 145/211/33 146/212/33 82/101/33 81/99/33
f 146/212/33 147/213/33 83/103/33 82/101/33
f 147/213/33 148/214/33 84/105/33 83/103/33
f 148/214/33 149/215/33 85/107/33 84/105/33
f 149/215/33 150/216/33 86/109/33 85/107/33
f 150/216/33 151/217/33 87/111/33 86/109/33
f 151/217/33 152/218/33 88/113/33 87/111/33
f 152/218/33 153/219/33 89/115/33 88/113/33
f 153/219/33 154/220/33 90/117/33 89/115/33
f 154/220/33 155/221/33 91/119/33 90/117/33
f 155/221/33 156/222/33 92/121/33 91/119/33
f 156/222/33 157/223/33 93/123/33 92/121/33
f 157/223/33 158/224/33 94/125/33 93/123/33
f 158/224/33 159/225/33 95/127/33 94/125/33
f 159/225/33 160/226/33 96/129/33 95/127/33
f 160/226/33 130/196/33 66/69/33 96/129/33
f 3/3/34 1/1/34 97/132/34 98/134/34
f 5/5/34 3/3/34 98/134/34 99/136/34
f 7/7/34 5/5/34 99/136/34 100/138/34
f 9/9/34 7/7/34 100/138/34 101/140/34
f 11/11/34 9/9/34 101/140/34 102/142/34
f 13/13/34 11/11/34 102/142/34 103/144/34
f 15/15/34 13/13/34 103/144/34 104/146/34
f 17/17/34 15/15/34 104/146/34 105/148/34
f 19/19/34 17/17/34 105/148/34 106/150/34
f 21/21/34 19/19/34 106/150/34 107/152/34
f 23/23/34 21/21/34 107/152/34 108/154/34
f 25/25/34 23/23/34 108/154/34 109/156/34
f 27/27/34 25/25/34 109/156/34 110/158/34
f 29/29/34 27/27/34 110/158/34 111/160/34
f 31/31/34 29/29/34 111/160/34 112/162/34
f 33/33/34 31/31/34 112/162/34 113/164/34
f 35/35/34 33/33/34 113/164/34 114/166/34
f 37/37/34 35/35/34 114/166/34 115/168/34
f 39/39/34 37/37/34 115/168/34 116/170/34
f 41/41/34 39/39/34 116/170/34 117/172/34
f 43/43/34 41/41/34 117/172/34 118/174/34
f 45/45/34 43/43/34 118/174/34 119/176/34
f 47/47/34 45/45/34 119/176/34 120/178/34
f 49/49/34 47/47/34 120/178/34 121/180/34
f 51/51/34 49/49/34 121/180/34 122/182/34
f 53/53/34 51/51/34 122/182/34 123/184/34
f 55/55/34 53/53/34 123/184/34 124/186/34
f 57/57/34 55/55/34 124/186/34 125/188/34
f 59/59/34 57/57/34 125/188/34 126/190/34
f 61/61/34 59/59/34 126/190/34 127/192/34
f 63/63/34 61/61/34 127/192/34 128/194/34
f 1/1/34 63/63/34 128/194/34 97/132/34
f 2/2/33 4/4/33 129/195/33 130/196/33
f 4/4/33 6/6/33 131/197/33 129/195/33
f 6/6/33 8/8/33 132/198/33 131/197/33
f 8/8/33 10/10/33 133/199/33 132/198/33
f 10/10/33 12/12/33 134/200/33 133/199/33
f 12/12/33 14/14/33 135/201/33 134/200/33
f 14/14/33 16/16/33 136/202/33 135/201/33
f 16/16/33 18/18/33 137/203/33 136/202/33
f 18/18/33 20/20/33 138/204/33 137/203/33
f 20/20/33 22/22/33 139/205/33 138/204/33
f 22/22/33 24/24/33 140/206/33 139/205/33
f 24/24/33 26/26/33 141/207/33 140/206/33
f 26/26/33 28/28/33 142/208/33 141/207/33
f 28/28/33 30/30/33 143/209/33 142/208/33
f 30/30/33 32/32/33 144/210/33 143/209/33
f 32/32/33 34/34/33 145/211/33 144/210/33
f 34/34/33 36/36/33 146/212/33 145/211/33
f 36/36/33 38/38/33 147/213/33 146/212/33
f 38/38/33 40/40/33 148/214/33 147/213/33
f 40/40/33 42/42/33 149/215/33 148/214/33
f 42/42/33 44/44/33 150/216/33 149/215/33
f 44/44/33 46/46/33 151/217/33 150/216/33
f 46/46/33 48/48/33 152/218/33 151/217/33
f 48/48/33 50/50/33 153/219/33 152/218/33
f 50/50/33 52/52/33 154/220/33 153/219/33
f 52/52/33 54/54/33 155/221/33 154/220/33
f 54/54/33 56/56/33 156/222/33 155/221/33
f 56/56/33 58/58/33 157/223/33 156/222/33
f 58/58/33 60/60/33 158/224/33 157/223/33
f 60/60/33 62/62/33 159/225/33 158/224/33
f 62/62/33 64/64/33 160/226/33 159/225/33
f 64/64/33 2/2/33 130/196/33 160/226/33
f 62/62/14 60/60/14 59/59/14 61/61/14
f 60/60/13 58/58/13 57/57/13 59/59/13
f 58/58/12 56/56/12 55/55/12 57/57/12
f 56/56/11 54/54/11 53/53/11 55/55/11
f 54/54/10 52/52/10 51/51/10 53/53/10
f 52/52/9 50/50/9 49/49/9 51/51/9
f 50/50/8 48/48/8 47/47/8 49/49/8
f 48/48/7 46/46/7 45/45/7 47/47/7
f 46/46/6 44/44/6 43/43/6 45/45/6
f 44/44/5 42/42/5 41/41/5 43/43/5
f 42/42/4 40/40/4 39/39/4 41/41/4
f 40/40/3 38/38/3 37/37/3 39/39/3
f 38/38/2 36/36/2 35/35/2 37/37/2
f 36/36/1 34/34/1 33/33/1 35/35/1
f 34/34/32 32/32/32 31/31/32 33/33/32
f 32/32/31 30/30/31 29/29/31 31/31/31
f 30/30/30 28/28/30 27/27/30 29/29/30
f 28/28/29 26/26/29 25/25/29 27/27/29
f 26/26/28 24/24/28 23/23/28 25/25/28
f 24/24/27 22/22/27 21/21/27 23/23/27
f 22/22/26 20/20/26 19/19/26 21/21/26
f 20/20/25 18/18/25 17/17/25 19/19/25
f 18/18/24 16/16/24 15/15/24 17/17/24
f 16/16/23 14/14/23 13/13/23 15/15/23
f 14/14/22 12/12/22 11/11/22 13/13/22
f 12/12/21 10/10/21 9/9/21 11/11/21
f 10/10/20 8/8/20 7/7/20 9/9/20
f 8/8/19 6/6/19 5/5/19 7/7/19
f 6/6/18 4/4/18 3/3/18 5/5/18
f 4/4/17 2/2/17 1/1/17 3/3/17
